<?xml version="1.0" standalone="no"?>
<!DOCTYPE svg PUBLIC "-//W3C//DTD SVG 20010904//EN"
 "http://www.w3.org/TR/2001/REC-SVG-20010904/DTD/svg10.dtd">
<svg version="1.0" xmlns="http://www.w3.org/2000/svg"
 width="260.000000pt" height="260.000000pt" viewBox="0 0 260.000000 260.000000"
 preserveAspectRatio="xMidYMid meet">
<metadata>
Created by potrace 1.14, written by Peter Selinger 2001-2017
</metadata>
<g transform="translate(0.000000,260.000000) scale(0.100000,-0.100000)"
fill="#000000" stroke="none">
<path d="M0 1300 l0 -1300 1300 0 1300 0 0 1300 0 1300 -1300 0 -1300 0 0
-1300z m878 789 c97 -24 275 -123 255 -143 -3 -3 -21 -6 -40 -6 -33 0 -33 0
-33 -50 l0 -50 50 0 50 0 0 40 c0 22 2 40 5 40 8 0 64 -64 65 -72 0 -5 -16 -8
-35 -8 l-35 0 0 -50 0 -50 49 0 c39 0 50 4 53 18 5 20 31 -34 43 -87 7 -31 6
-31 -34 -31 l-41 0 0 -50 0 -50 45 0 c41 0 45 -2 45 -25 0 -48 -23 -132 -57
-207 l-35 -77 -101 -3 -100 -3 0 -45 0 -45 61 -3 c34 -2 62 -5 62 -8 0 -4
-190 -273 -242 -344 -15 -20 -118 -164 -213 -297 -16 -23 -20 -23 -222 -23
-167 0 -204 2 -200 13 5 13 106 155 225 317 119 162 132 179 132 183 0 3 -19
7 -42 11 -23 4 -79 24 -124 45 -155 73 -276 223 -314 391 -30 128 0 303 71
415 76 120 232 227 369 254 30 6 64 13 75 15 30 7 159 -2 213 -15z m1416 -21
c-4 -7 -49 -69 -99 -138 -50 -69 -129 -176 -174 -238 -46 -63 -81 -115 -78
-118 2 -2 30 -11 63 -20 63 -16 216 -93 218 -109 1 -5 -26 -10 -59 -10 l-60 0
0 -50 0 -50 94 -3 c56 -2 98 2 106 8 31 26 123 -187 133 -307 6 -76 -25 -202
-70 -283 -69 -124 -185 -223 -322 -275 -59 -22 -82 -25 -206 -25 -152 0 -212
14 -316 75 -70 41 -174 150 -212 221 -32 61 -64 162 -55 177 2 4 24 7 49 7
l45 0 -3 48 -3 47 -47 3 c-45 3 -48 5 -48 31 0 56 55 198 108 279 13 20 16 20
26 7 9 -13 29 -15 106 -13 l95 3 3 53 3 52 50 0 50 0 -3 48 -3 47 -91 5 -91 5
191 267 191 268 208 0 c164 0 207 -3 201 -12z m-804 -593 c0 -19 -4 -36 -10
-36 -47 -6 -49 -3 -23 41 23 39 33 38 33 -5z"/>
<path d="M542 1893 l3 -48 50 -5 c49 -5 50 -6 53 -41 3 -34 0 -39 -40 -61 -51
-28 -105 -104 -114 -159 -6 -35 -9 -38 -43 -41 -35 -3 -36 -4 -39 -50 l-3 -48
50 0 c46 0 52 -3 81 -39 43 -55 88 -80 156 -87 110 -11 190 26 241 114 23 39
28 59 28 112 -1 74 -17 111 -70 164 l-35 35 98 3 97 3 3 47 3 47 -53 3 -53 3
-3 48 -3 47 -50 0 -49 0 0 -98 0 -99 -50 16 -50 16 0 83 0 82 -106 0 -105 0 3
-47z"/>
<path d="M1029 1530 c0 -5 -1 -27 -2 -47 l0 -38 102 -3 102 -3 -3 48 -3 48
-97 3 c-63 2 -98 -1 -99 -8z"/>
<path d="M660 1180 l0 -51 103 3 102 3 0 45 0 45 -102 3 -103 3 0 -51z"/>
<path d="M1800 1490 c0 -33 -4 -50 -12 -51 -7 0 -31 -1 -53 -2 l-40 -2 0 -50
0 -50 100 0 100 0 3 53 3 52 50 0 50 0 -3 48 -3 47 -97 3 -98 3 0 -51z"/>
<path d="M1760 1227 c-52 -17 -136 -103 -149 -154 l-12 -42 -72 -3 -72 -3 -3
-47 -3 -48 -50 0 -50 0 3 -52 3 -53 48 -3 47 -3 0 55 0 56 80 0 80 0 24 -37
c51 -81 110 -113 208 -113 78 0 131 23 177 75 44 50 61 93 61 152 -1 157 -165
269 -320 220z"/>
<path d="M2102 973 l3 -48 50 0 50 0 3 48 3 47 -56 0 -56 0 3 -47z"/>
</g>
</svg>
